# xmcd
#
# Track frame offsets:
#       150
#       9523
#       21532
#       31929
#       41849
#       54328
#       63075
#       74524
#       85539
#       96684
#       106731
#       119058
#       129063
#       139836
#       149272
#       160620
#
# Disc length: 2287 seconds
#
# Revision: 0
# Processed by: cddbd v1.5.2PL0 Copyright (c) Steve Scherf et al.
# Submitted via: CD-DA_X-Tractor v0.24
#
DISCID=d808ed10
DTITLE=Elvis Presley - The Signature Collection - CD 2
DYEAR=2007
DGENRE=blues
TTITLE0=Don't Be Cruel
TTITLE1=I'm Left You're Right She's Gone
TTITLE2=Hound Dog
TTITLE3=Lawdy Miss Clawdy
TTITLE4=Love Me
TTITLE5=Ready Teddy
TTITLE6=We're Gonna Move
TTITLE7=I Got A Woman
TTITLE8=Anyplace Is Paradise
TTITLE9=My Baby Left Me
TTITLE10=I Love You Because
TTITLE11=One-Sided Love Affair
TTITLE12=So Glad You're Mine
TTITLE13=I'm Gonna Sit Right Down And Cry
TTITLE14=Mystery Train
TTITLE15=How's The World Treating You
EXTD=
EXTT0=
EXTT1=
EXTT2=
EXTT3=
EXTT4=
EXTT5=
EXTT6=
EXTT7=
EXTT8=
EXTT9=
EXTT10=
EXTT11=
EXTT12=
EXTT13=
EXTT14=
EXTT15=
PLAYORDER=
